<?xml version="1.0" encoding="utf-8"?>
<!-- Generator: Adobe Illustrator 25.4.1, SVG Export Plug-In . SVG Version: 6.00 Build 0)  -->
<svg version="1.1" id="Layer_1" xmlns="http://www.w3.org/2000/svg" xmlns:xlink="http://www.w3.org/1999/xlink" x="0px" y="0px"
	 viewBox="0 0 65 65" style="enable-background:new 0 0 65 65;" xml:space="preserve">
<path d="M58,24.6L53,18c-0.2-0.3-0.4-0.5-0.7-0.7v-8C52.3,7.5,50.8,6,49,6H15.9c-1.8,0-3.3,1.5-3.3,3.3v7.9
	c-0.2,0.2-0.5,0.4-0.7,0.7l-5,6.6c-0.6,0.9-1,1.9-1,3v1.7c0,2.7,2.2,5,5,5v21.5c0,1.8,1.5,3.3,3.3,3.3h36.4c1.8,0,3.3-1.5,3.3-3.3
	V34.2c2.7,0,5-2.2,5-5v-1.7C59,26.5,58.6,25.4,58,24.6z M15.9,9.3h33.2v6.6H15.9V9.3z M38.8,19.3h3.6L49,30.8h-6.9L38.8,19.3z
	 M40.4,30.9h-7.1V19.3h3.8L40.4,30.9z M27.9,19.3h3.8v11.6h-7.1L27.9,19.3z M22.9,30.8H16l6.6-11.6h3.6L22.9,30.8z M14,30.8h-3
	c-0.9,0.1-1.7-0.7-1.7-1.6v-1.7c0-0.4,0.1-0.7,0.3-1l5-6.6c0.3-0.4,0.8-0.7,1.3-0.7h4.7L14,30.8z M39.1,55.7H26.7V39.1h12.4V55.7z
	 M50.7,55.7h-9.9V39.1c0-0.9-0.7-1.7-1.7-1.7H26.7c-0.9,0-1.7,0.7-1.7,1.7v16.6H14.3V34.2h36.4V55.7z M55.7,29.2
	c0,0.9-0.7,1.7-1.7,1.7h-3l-6.6-11.6h4.7c0.5,0,1,0.2,1.3,0.7l5,6.6c0.2,0.3,0.3,0.6,0.3,1V29.2z"/>
</svg>
