<?xml version="1.0" encoding="utf-8"?>
<!-- Generator: Adobe Illustrator 25.4.1, SVG Export Plug-In . SVG Version: 6.00 Build 0)  -->
<svg version="1.1" id="Layer_1" xmlns="http://www.w3.org/2000/svg" xmlns:xlink="http://www.w3.org/1999/xlink" x="0px" y="0px"
	 viewBox="0 0 65 65" style="enable-background:new 0 0 65 65;" xml:space="preserve">
<g>
	<path d="M62.5,57.5h-3v-29c0-0.6-0.4-1-1-1h-7v-4h7c0.6,0,1-0.4,1-1v-6c0-0.6-0.4-1-1-1h-8c-0.6,0-1,0.4-1,1v11h-6v-15
		c0-0.3-0.1-0.5-0.3-0.7l-10-10c-0.4-0.4-1-0.4-1.4,0l-10,10c-0.2,0.2-0.3,0.4-0.3,0.7v15h-6v-11c0-0.6-0.4-1-1-1h-8
		c-0.6,0-1,0.4-1,1v6c0,0.6,0.4,1,1,1h7v4h-7c-0.6,0-1,0.4-1,1v29h-3c-0.6,0-1,0.4-1,1v4c0,0.6,0.4,1,1,1h60c0.6,0,1-0.4,1-1v-4
		C63.5,57.9,63.1,57.5,62.5,57.5z M51.5,17.5h6v4h-6V17.5z M43.5,29.5h14v24h-14V29.5z M43.5,55.5h14v2h-14V55.5z M32.5,3.9l7.6,7.6
		H24.9L32.5,3.9z M23.5,13.5h18v44h-2v-5c0-3.9-3.1-7-7-7s-7,3.1-7,7v5h-2V13.5z M37.5,52.5v5h-10v-5c0-2.8,2.2-5,5-5
		S37.5,49.7,37.5,52.5z M7.5,21.5v-4h6v4H7.5z M7.5,29.5h14v24h-14V29.5z M7.5,55.5h14v2h-14V55.5z M61.5,61.5h-58v-2h19h20h19V61.5
		z"/>
	<path d="M18.5,31.5h-8c-0.6,0-1,0.4-1,1v18c0,0.6,0.4,1,1,1h8c0.6,0,1-0.4,1-1v-18C19.5,31.9,19.1,31.5,18.5,31.5z M13.5,49.5h-2
		v-4h2V49.5z M13.5,43.5h-2v-4h2V43.5z M13.5,37.5h-2v-4h2V37.5z M17.5,49.5h-2v-4h2V49.5z M17.5,43.5h-2v-4h2V43.5z M17.5,37.5h-2
		v-4h2V37.5z"/>
	<path d="M54.5,31.5h-8c-0.6,0-1,0.4-1,1v18c0,0.6,0.4,1,1,1h8c0.6,0,1-0.4,1-1v-18C55.5,31.9,55.1,31.5,54.5,31.5z M49.5,49.5h-2
		v-4h2V49.5z M49.5,43.5h-2v-4h2V43.5z M49.5,37.5h-2v-4h2V37.5z M53.5,49.5h-2v-4h2V49.5z M53.5,43.5h-2v-4h2V43.5z M53.5,37.5h-2
		v-4h2V37.5z"/>
	<path d="M32.5,29.5c3.9,0,7-3.1,7-7c0-3.9-3.1-7-7-7s-7,3.1-7,7C25.5,26.4,28.6,29.5,32.5,29.5z M32.5,17.5c2.8,0,5,2.2,5,5
		s-2.2,5-5,5s-5-2.2-5-5S29.7,17.5,32.5,17.5z"/>
	<path d="M37.5,37.5h-10c-0.6,0-1,0.4-1,1v4c0,0.6,0.4,1,1,1h10c0.6,0,1-0.4,1-1v-4C38.5,37.9,38.1,37.5,37.5,37.5z M36.5,41.5h-8
		v-2h8V41.5z"/>
	<rect x="33.5" y="52.5" width="2" height="2"/>
	<path d="M33.8,25.2l1.4-1.4l-1.7-1.7v-2.6h-2v3c0,0.3,0.1,0.5,0.3,0.7L33.8,25.2z"/>
</g>
</svg>
