<?xml version="1.0" encoding="utf-8"?>
<!-- Generator: Adobe Illustrator 25.4.1, SVG Export Plug-In . SVG Version: 6.00 Build 0)  -->
<svg version="1.1" id="Layer_1" xmlns="http://www.w3.org/2000/svg" xmlns:xlink="http://www.w3.org/1999/xlink" x="0px" y="0px"
	 viewBox="0 0 65 65" style="enable-background:new 0 0 65 65;" xml:space="preserve">
<path d="M34.8,9V6.7c0-1.3-1.1-2.3-2.3-2.3s-2.3,1.1-2.3,2.3V9C17.3,10.2,7.3,20.6,6.7,33.5c0,1.6,0,3.1,1.7,3.6
	c3.4,0.9,2.9-4.9,8.4-5c2.5,0.2,4.7,1.6,5.8,3.8c0.4,0.7,1.2,1.2,2,1.2c2.5,0,1.9-2.8,5.5-4.5v20.9c0,3.9,3.2,7,7,7c3.9,0,7-3.2,7-7
	c0-1.3-1.1-2.3-2.3-2.3c-1.3,0-2.3,1.1-2.3,2.3s-1,2.5-2.3,2.5s-2.3-1.1-2.3-2.3V32.8c3.5,1.6,3,4.4,5.4,4.4c0.8,0,1.6-0.5,2-1.2
	c1.4-3.2,5.1-4.7,8.3-3.3c1.5,0.6,2.7,1.8,3.3,3.3c0.6,1.1,2,1.6,3.2,1c0.8-0.5,1.3-1.3,1.2-2.2C58.4,21.4,48.2,10.2,34.8,9z
	 M40.3,30.9c-3.9-4.3-10.6-4.6-15-0.7c-0.2,0.2-0.5,0.4-0.7,0.7c-3.1-3.4-8.2-4.4-12.3-2.3c3.5-11.1,15.3-17.4,26.5-13.9
	c6.6,2.1,11.8,7.3,13.9,13.9C48.5,26.5,43.4,27.5,40.3,30.9z"/>
</svg>
