<?xml version="1.0" encoding="utf-8"?>
<!-- Generator: Adobe Illustrator 25.4.1, SVG Export Plug-In . SVG Version: 6.00 Build 0)  -->
<svg version="1.1" id="Layer_1" xmlns="http://www.w3.org/2000/svg" xmlns:xlink="http://www.w3.org/1999/xlink" x="0px" y="0px"
	 viewBox="0 0 65 65" style="enable-background:new 0 0 65 65;" xml:space="preserve">
<g>
	<path d="M44.8,9.7c-8-6.8-20.1-5.8-26.9,2.2c-3,3.6-4.6,8.1-4.5,12.8c0.5,6.5,3.4,12.6,8.2,17c1.4,1.6,2.7,3.2,2.7,4.1v6.5
		c0,4.1,3.3,7.4,7.4,7.4h1.5c4.1,0,7.4-3.3,7.4-7.4v-6.5c0-0.8,1.4-2.5,2.7-4.1c4.9-4.5,7.8-10.8,8.2-17.5
		C51.6,18.7,49.1,13.4,44.8,9.7z M38,52.4c0,2.6-2.1,4.7-4.7,4.7h-1.5c-2.6,0-4.7-2.1-4.7-4.7v-3.5H38V52.4z M49,24.3
		c-0.1,7.4-4.4,12.2-7.6,15.7c-2,2.2-3.5,4-3.5,5.9v0.3H27.1v-0.3c0-1.9-1.6-3.7-3.5-5.9c-4.3-4-6.9-9.4-7.4-15.3
		c-0.2-9,6.9-16.5,16-16.8c9.1-0.3,16.5,6.9,16.8,16C49,24,49,24.1,49,24.3z"/>
	<path d="M58.4,21.6h-2.7c-0.8,0-1.4,0.6-1.4,1.4c0,0.8,0.6,1.4,1.4,1.4h2.7c0.8,0,1.4-0.6,1.4-1.4C59.8,22.2,59.2,21.6,58.4,21.6z"
		/>
	<path d="M10.7,23c0-0.8-0.6-1.4-1.4-1.4H6.6c-0.8,0-1.4,0.6-1.4,1.4c0,0.8,0.6,1.4,1.4,1.4h2.7C10.1,24.3,10.7,23.7,10.7,23z"/>
	<path d="M8.4,7.5l2.7,2.7c0.5,0.5,1.4,0.6,1.9,0.1s0.6-1.4,0.1-1.9c0,0,0,0-0.1-0.1l-2.7-2.7C9.8,5.1,8.9,5,8.4,5.5
		S7.8,6.9,8.3,7.4C8.3,7.4,8.3,7.4,8.4,7.5z"/>
	<path d="M52,10.4c0.3,0.1,0.6,0.3,1,0.3s0.7-0.1,1-0.4l2.7-2.7c0.5-0.5,0.5-1.4-0.1-1.9c-0.5-0.5-1.3-0.5-1.9,0L52,8.4
		C51.5,8.9,51.4,9.7,52,10.4C51.9,10.3,51.9,10.3,52,10.4z"/>
	<path d="M56.6,38.3l-2.7-2.7c-0.5-0.5-1.4-0.6-1.9-0.1s-0.6,1.4-0.1,1.9c0,0,0,0,0.1,0.1l2.7,2.7c0.5,0.5,1.4,0.6,1.9,0.1
		s0.6-1.4,0.1-1.9C56.7,38.4,56.7,38.4,56.6,38.3z"/>
	<path d="M11.1,35.6l-2.7,2.7c-0.5,0.5-0.6,1.3-0.1,1.9c0,0,0,0,0.1,0.1c0.5,0.5,1.3,0.6,1.9,0.1c0,0,0,0,0.1-0.1l2.7-2.7
		c0.5-0.5,0.5-1.4-0.1-1.9C12.4,35.1,11.6,35.1,11.1,35.6z"/>
	<path d="M35.6,19.3C35.6,19.3,35.6,19.3,35.6,19.3C35.6,19.3,35.6,19.3,35.6,19.3z"/>
	<path d="M36.6,27h-4.9l5.8-5.9c0.5-0.5,0.6-1.4,0.1-1.9c-0.5-0.5-1.3-0.5-1.9,0.1c0,0,0,0-0.1,0l-8.2,8.2c-0.4,0.4-0.5,1-0.3,1.5
		c0.2,0.5,0.7,0.8,1.3,0.8h4.9l-3.1,3.1c-0.5,0.5-0.5,1.4,0,1.9s1.4,0.5,1.9,0l5.5-5.5c0.4-0.4,0.5-1,0.3-1.5
		C37.7,27.3,37.2,27,36.6,27z"/>
</g>
</svg>
