<?xml version="1.0" encoding="utf-8"?>
<!-- Generator: Adobe Illustrator 25.4.1, SVG Export Plug-In . SVG Version: 6.00 Build 0)  -->
<svg version="1.1" id="Layer_1" xmlns="http://www.w3.org/2000/svg" xmlns:xlink="http://www.w3.org/1999/xlink" x="0px" y="0px"
	 viewBox="0 0 65 65" style="enable-background:new 0 0 65 65;" xml:space="preserve">
<g>
	<path d="M58.3,14.1H6.7c-2,0-3.7,1.6-3.7,3.7v29.5c0,2,1.7,3.7,3.7,3.7h51.6c2,0,3.7-1.7,3.7-3.7V17.8C62,15.7,60.3,14.1,58.3,14.1
		z M59.5,47.3c0,0.7-0.6,1.2-1.2,1.2H6.7c-0.7,0-1.2-0.6-1.2-1.2V17.8c0-0.7,0.6-1.2,1.2-1.2h51.6c0.7,0,1.2,0.6,1.2,1.2V47.3z"/>
	<path d="M55.8,37.4v-9.8c0.1-0.7-0.5-1.2-1.2-1.2c-2.7,0-4.9-2.2-4.9-4.9c0-0.7-0.6-1.2-1.2-1.2h-32c-0.7,0-1.2,0.6-1.2,1.2
		c0,2.7-2.2,4.9-4.9,4.9c-0.7,0-1.2,0.6-1.2,1.2v9.8c0,0.7,0.6,1.2,1.2,1.2c2.7,0,4.9,2.2,4.9,4.9c0,0.7,0.6,1.2,1.2,1.2h32
		c0.7,0,1.2-0.6,1.2-1.2c0-2.7,2.2-4.9,4.9-4.9C55.3,38.6,55.8,38,55.8,37.4z M17.7,42.4L17.7,42.4c-0.5-3.2-2.9-5.6-6-6.1v-7.6
		c3.1-0.5,5.5-2.9,6-6h7.5c-5.4,4.1-6.5,11.8-2.5,17.2c0.7,0.9,1.5,1.8,2.5,2.5H17.7z M32.5,42.3c-5.4,0-9.8-4.4-9.8-9.8
		c0-5.4,4.4-9.8,9.8-9.8s9.8,4.4,9.8,9.8C42.3,37.9,37.9,42.3,32.5,42.3z M47.3,42.3h-7.5c5.4-4.1,6.5-11.8,2.5-17.2
		c-0.7-0.9-1.5-1.8-2.5-2.5h7.5c0.5,3.1,2.9,5.5,6,6l0.1,7.7C50.3,36.8,47.9,39.2,47.3,42.3z"/>
	<rect x="9" y="19.9" width="3" height="3"/>
	<rect x="53" y="19.9" width="3" height="3"/>
	<rect x="53" y="41.9" width="3" height="3"/>
	<rect x="9" y="41.9" width="3" height="3"/>
</g>
</svg>
