<?xml version="1.0" encoding="utf-8"?>
<!-- Generator: Adobe Illustrator 25.4.1, SVG Export Plug-In . SVG Version: 6.00 Build 0)  -->
<svg version="1.1" id="Layer_1" xmlns="http://www.w3.org/2000/svg" xmlns:xlink="http://www.w3.org/1999/xlink" x="0px" y="0px"
	 viewBox="0 0 65 65" style="enable-background:new 0 0 65 65;" xml:space="preserve">
<path d="M55.8,34.6c1.5-1.4,2.3-3.4,2.3-5.4v-1.8h0.6c1.1,0,2.1-0.9,2.1-2.1V25c0-0.9-0.5-1.6-1.3-1.9v-0.6c0-2.4-0.9-4.6-2.6-6.3
	l-0.1-0.1v-0.3v-0.1c0-0.5-0.4-0.9-0.9-0.8c-0.2,0-0.3,0-0.5,0.1c-0.6-0.4-1.3-0.7-1.9-0.9v-0.3c0-0.9-0.7-1.6-1.6-1.6h-2.7
	c-0.9,0-1.6,0.7-1.6,1.6V14c-0.7,0.2-1.4,0.6-2,1c-0.1-0.1-0.3-0.1-0.4-0.1h-0.1c-0.5,0-0.9,0.4-0.8,0.9v0.3c-1.7,1.7-2.7,4-2.7,6.4
	V23c-0.3,0.1-0.7,0.4-0.9,0.7c-0.5-1.1-1.1-2-1.9-2.8l-0.1-0.1v-0.3v-0.1c0-0.5-0.4-0.9-0.9-0.8c-0.2,0-0.3,0-0.5,0.1
	c-0.6-0.4-1.3-0.7-1.9-0.9v-0.3c0-0.9-0.7-1.6-1.6-1.6h-2.7c-0.9,0-1.6,0.7-1.6,1.6v0.2c-0.7,0.2-1.4,0.6-2,1
	c-0.1-0.1-0.3-0.1-0.4-0.1H27c-0.5,0-0.9,0.4-0.8,0.9v0.3c-0.8,0.8-1.5,1.8-2,2.9c-0.2-0.3-0.5-0.5-0.9-0.6v-0.6
	c0-2.4-0.9-4.6-2.6-6.3l-0.1-0.1v-0.3v-0.1c0-0.5-0.4-0.9-0.9-0.8c-0.2,0-0.3,0-0.5,0.1c-0.6-0.4-1.3-0.7-1.9-0.9v-0.3
	c0-0.9-0.7-1.6-1.6-1.6H13c-0.9,0-1.6,0.7-1.6,1.6V14c-0.7,0.2-1.4,0.6-2,1c-0.1-0.1-0.3-0.1-0.4-0.1H8.9c-0.5,0-0.9,0.4-0.8,0.9
	v0.3c-1.7,1.7-2.7,4-2.7,6.4V23c-0.8,0.3-1.3,1.1-1.3,1.9v0.3c0,1.1,0.9,2.1,2.1,2.1h0.6v1.8c0,2.1,0.8,4,2.3,5.4
	c-2.1,0.6-4,1.8-5.4,3.5c-1.5,1.8-2.3,4.1-2.3,6.5v2.7v0.1c0,0.5,0.4,0.9,0.9,0.8h17.2c-0.1,0.4-0.1,0.7-0.1,1.1v2.7V52
	c0,0.5,0.4,0.9,0.9,0.8h24.1h0.1c0.5,0,0.9-0.4,0.8-0.9v-2.7c0-0.4,0-0.7-0.1-1.1h17.2h0.1c0.5,0,0.9-0.4,0.8-0.9v-2.7
	C63.5,39.9,60.3,35.8,55.8,34.6z M56.3,29.1c0,3.2-2.6,5.8-5.7,5.8c-3.2,0-5.8-2.6-5.8-5.8v-1.8h11.5V29.1z M49.4,14h2.2v1.7
	c-0.4-0.1-0.7-0.2-1.1-0.1c-0.4,0-0.7,0.1-1.1,0.2V14z M50.5,17.4c1,0,1.8,0.8,1.8,1.8S51.5,21,50.5,21s-1.8-0.8-1.8-1.8
	C48.8,18.2,49.6,17.4,50.5,17.4z M43.4,22.4c0-1.2,0.3-2.3,0.8-3.3v2c0.1,0.5,0.5,1,1,1s0.9-0.4,0.9-0.9V17c0.5-0.4,1-0.7,1.5-0.9
	V17c-0.4,0.6-0.7,1.3-0.7,2.1c0,2,1.6,3.6,3.6,3.6s3.6-1.6,3.6-3.6c0-0.7-0.2-1.5-0.7-2.1v-1c0.5,0.2,1.1,0.6,1.5,0.9v4.2
	c0,0.5,0.4,0.9,0.9,0.9s0.9-0.4,0.9-0.9v-2c0.6,1,0.8,2.2,0.8,3.3v0.4H43.4V22.4z M42.1,25c0-0.1,0.1-0.2,0.2-0.2h16.4
	c0.1,0,0.2,0.1,0.2,0.2v0.3c0,0.1-0.1,0.2-0.2,0.2H42.3c-0.1,0-0.2-0.1-0.2-0.2V25z M41.6,27.2c0.2,0.1,0.4,0.2,0.7,0.2H43v1.8
	c0,2,0.8,4,2.3,5.4c-2.7,0.7-5.1,2.5-6.4,5c-0.3-0.1-0.7-0.2-1-0.3c1.5-1.4,2.3-3.4,2.3-5.4v-1.8h0.6c1.1,0,2.1-0.9,2.1-2.1v-0.3
	c0-0.9-0.5-1.6-1.3-1.9V27.2z M35.1,39c-0.8,0.4-1.7,0.6-2.6,0.6c0,0,0,0-0.1,0c-3.2,0-5.7-2.6-5.7-5.8V32h11.5v1.8
	C38.2,36,37,38,35.1,39z M36.3,40.7v1.7v0.1c-0.1,1.1-0.8,1.8-1.8,1.8h-4h-0.1c-0.9,0-1.7-0.8-1.7-1.8v-1.7c0.2,0,0.5,0,0.7,0
	c1,0.4,2,0.6,3.1,0.6s2.1-0.2,3.1-0.7c0.1,0,0.3,0,0.4,0S36.2,40.7,36.3,40.7z M31.4,18.8h2.2v1.6c-0.4-0.1-0.7-0.2-1.1-0.1
	c-0.4,0-0.7,0.1-1.1,0.2V18.8z M32.5,22.1c1,0,1.8,0.8,1.8,1.8s-0.8,1.8-1.8,1.8s-1.8-0.8-1.8-1.8C30.7,22.8,31.5,22.1,32.5,22.1z
	 M25.4,27.2c0-1.2,0.3-2.3,0.8-3.3v2c0,0.4,0.4,0.8,1,0.8c0.5,0,0.9-0.4,0.9-0.9v-4.2c0.5-0.4,1-0.7,1.5-0.9v1.1
	c-0.4,0.6-0.7,1.3-0.7,2.1c0,2,1.6,3.6,3.6,3.6s3.6-1.6,3.6-3.6c0-0.7-0.2-1.5-0.7-2.1v-1c0.5,0.2,1.1,0.6,1.5,0.9v4.2
	c0,0.5,0.4,0.9,0.9,0.9s0.9-0.4,0.9-0.9v-2c0.6,1,0.8,2.2,0.8,3.3v0.4H25.4V27.2z M24.1,29.7c0-0.1,0.1-0.2,0.2-0.2h16.4
	c0.1,0,0.2,0.1,0.2,0.2V30c0,0.1-0.1,0.2-0.2,0.2H24.3c-0.1,0-0.2-0.1-0.2-0.2V29.7z M23.6,27.2v0.5c-0.8,0.3-1.3,1.1-1.3,1.9V30
	c0,1.1,0.9,2.1,2.1,2.1H25v1.8c0,2.1,0.8,4,2.3,5.4c-0.4,0.1-0.7,0.2-1,0.3c-1.3-2.5-3.7-4.3-6.4-5c1.5-1.4,2.3-3.4,2.3-5.4v-1.8
	h0.6C23.1,27.4,23.4,27.3,23.6,27.2z M13.3,14h2.2v1.7c-0.4-0.1-0.7-0.2-1.1-0.1c-0.4,0-0.7,0.1-1.1,0.2V14z M14.5,17.4
	c1,0,1.8,0.8,1.8,1.8S15.5,21,14.5,21s-1.8-0.8-1.8-1.8S13.5,17.4,14.5,17.4z M7.3,22.4c0-1.2,0.3-2.3,0.8-3.3v2c0.1,0.5,0.5,1,1,1
	s0.9-0.4,0.9-0.9V17c0.5-0.4,1-0.7,1.5-0.9V17c-0.4,0.6-0.7,1.3-0.7,2.1c0,2,1.6,3.6,3.6,3.6s3.6-1.6,3.6-3.6c0-0.7-0.2-1.5-0.7-2.1
	v-1c0.5,0.2,1.1,0.6,1.5,0.9v4.2c0,0.5,0.4,0.9,0.9,0.9s0.9-0.4,0.9-0.9v-2c0.6,1,0.8,2.2,0.8,3.3v0.4H7.3V22.4z M6.2,25.5
	c-0.1,0-0.2-0.1-0.2-0.2V25c0-0.1,0.1-0.2,0.2-0.2h16.4c0.1,0,0.2,0.1,0.2,0.2v0.3h0.1c0,0.1-0.1,0.2-0.2,0.2H6.2z M8.6,29.2v-1.8
	h0.1h11.5v1.8c0,3.2-2.6,5.8-5.8,5.8C11.2,35,8.6,32.4,8.6,29.2z M23.6,51h-2.2v-1.8c0-2.1,0.8-4.1,2.2-5.6V51z M20.1,46.3H3.3v-1.8
	c0.1-4.5,3.6-8.2,8.1-8.4c1,0.4,2,0.7,3.1,0.7s2.1-0.2,3.1-0.7c2.9,0.1,5.6,1.8,7,4.3C22.4,41.7,20.8,43.8,20.1,46.3z M39.6,50.9
	H25.4v-8.8c0.5-0.3,1-0.6,1.5-0.8v1.2v0.1c0,2,1.6,3.5,3.6,3.5h4h0.1c2,0,3.5-1.6,3.5-3.6v-1.3c0.5,0.2,1,0.4,1.5,0.7V50.9z
	 M43.6,51h-2.2v-7.4c1.4,1.5,2.2,3.5,2.2,5.6V51z M61.7,46.4H45c-0.8-2.6-2.4-4.6-4.5-6c0.7-1.2,1.7-2.3,2.9-3
	c1.2-0.8,2.7-1.2,4.1-1.3c1.9,0.9,4.2,0.9,6.1,0c2.2,0.1,4.2,1,5.7,2.6c1.5,1.6,2.4,3.7,2.4,5.9V46.4z"/>
</svg>
