<?xml version="1.0" encoding="utf-8"?>
<!-- Generator: Adobe Illustrator 25.4.1, SVG Export Plug-In . SVG Version: 6.00 Build 0)  -->
<svg version="1.1" id="Layer_1" xmlns="http://www.w3.org/2000/svg" xmlns:xlink="http://www.w3.org/1999/xlink" x="0px" y="0px"
	 viewBox="0 0 65 65" style="enable-background:new 0 0 65 65;" xml:space="preserve">
<g>
	<path d="M16.8,28.1c0.2,0.3,0.4,0.5,0.6,0.6l8.5,8.5c0.2,0.2,0.4,0.5,0.6,0.6l1.6,1.6c0.4,0.4,1,0.7,1.6,0.7c0.6,0,1.2-0.2,1.6-0.7
		c0.9-0.9,0.9-2.3,0-3.2L31.2,36l5.9-5.9l16.7,16.7c0.4,0.4,1,0.7,1.6,0.7c0.6,0,1.2-0.2,1.6-0.7c0.9-0.9,0.9-2.3,0-3.2L40.3,26.9
		l5.8-5.8l0.3,0.3c0.4,0.4,1,0.7,1.6,0.7s1.2-0.2,1.6-0.7c0.9-0.9,0.9-2.3,0-3.2l-1.5-1.5c-0.1-0.1-0.2-0.3-0.3-0.4
		c-0.1-0.2-0.3-0.3-0.5-0.4L39,7.4c-0.1-0.1-0.2-0.3-0.3-0.4c-0.1-0.1-0.3-0.3-0.5-0.4L36,4.4c-0.9-0.8-2.3-0.8-3.2,0
		c-0.9,0.9-1,2.3-0.1,3.2l1,1l-15,15l-1-1c-0.9-0.8-2.3-0.8-3.2,0c-0.9,0.9-1,2.3-0.1,3.2L16.8,28.1z M37,11.8l5.9,5.9l-15,15
		L22,26.8L37,11.8z"/>
	<path d="M55.4,56.7h-7.3v-7.4c0-1.3-1-2.3-2.3-2.3H18.5c-1.3,0-2.3,1-2.3,2.3v7.4H9.6c-1.3,0-2.3,1-2.3,2.3s1,2.3,2.3,2.3h45.9
		c1.3,0,2.3-1,2.3-2.3C57.7,57.7,56.7,56.7,55.4,56.7z M43.6,56.7H20.8v-5.1h22.8V56.7z"/>
</g>
</svg>
