<?xml version="1.0" encoding="utf-8"?>
<!-- Generator: Adobe Illustrator 25.4.1, SVG Export Plug-In . SVG Version: 6.00 Build 0)  -->
<svg version="1.1" id="Layer_1" xmlns="http://www.w3.org/2000/svg" xmlns:xlink="http://www.w3.org/1999/xlink" x="0px" y="0px"
	 viewBox="0 0 65 65" style="enable-background:new 0 0 65 65;" xml:space="preserve">
<g>
	<path d="M21.5,37.9c-0.1-0.6-0.4-1.1-0.8-1.4c-0.9-0.7-2.2-0.5-2.9,0.4l-1.1,1.4c0,0.1-0.1,0.1-0.1,0.2l-2.4,3.1l-0.1,0.1l-0.6,0.7
		c-0.7,1-0.5,2.3,0.4,3c0.9,0.7,2.2,0.5,2.9-0.4l4.3-5.6C21.4,39,21.6,38.4,21.5,37.9z"/>
	<path d="M24.9,44c0.7-0.9,0.6-2.2-0.4-3c-0.9-0.7-2.2-0.5-2.9,0.4L18,46c-0.6,0.9-0.4,2.1,0.4,2.8c0.9,0.7,2.3,0.6,3-0.3l2.8-3.6
		L24.9,44z"/>
	<path d="M15.7,36c-0.1-0.6-0.4-1.1-0.8-1.4C14,33.9,12.7,34.1,12,35l-2.4,3.1c-0.7,1-0.5,2.3,0.4,3c0.8,0.7,2.1,0.5,2.8-0.3
		l2.6-3.3C15.7,37,15.9,36.5,15.7,36z"/>
	<path d="M20.2,14.1c0-0.1,0-0.1-0.1-0.2l-6-3.9c-0.3-0.1-0.5-0.2-0.8-0.2c-0.4,0-0.8,0.2-1.1,0.6L0.9,25.9
		c-0.3,0.3-0.4,0.7-0.3,1.1c0.1,0.3,0.3,0.7,0.6,0.9L7,31.8c0.1,0.1,0.2,0.1,0.3,0.1c0.1,0,0.1,0,0.2-0.1l12.6-17.4
		C20.2,14.3,20.2,14.2,20.2,14.1z"/>
	<path d="M25.9,52l0.3-0.3c0-0.1,0-0.1,0.1-0.2l2.4-3.1c0.2-0.4,0.4-0.8,0.4-1.3c0-1.2-0.9-2.1-2.1-2.1c-0.6,0-1.2,0.3-1.6,0.8
		l-2.8,3.7c-0.7,0.9-0.5,2.2,0.4,2.9c0.4,0.3,0.9,0.5,1.5,0.4C25.1,52.7,25.6,52.4,25.9,52z"/>
	<path d="M64.4,29.1c0-0.4-0.1-0.8-0.3-1.1L52.8,12.5c-0.4-0.6-1.3-0.8-1.9-0.4l-6,3.9c0,0-0.1,0.1-0.1,0.2s0,0.2,0.1,0.3l12.6,17.3
		c0,0,0.1,0.1,0.2,0.1s0.2,0,0.3-0.1l5.9-3.9C64.2,29.6,64.5,29.3,64.4,29.1z"/>
	<path d="M43.1,18.6c-0.2,0.1-0.3,0.1-0.5,0l-8.4-3.3c-1.5-0.6-3.3-0.4-4.8,0.5l-10.2,6.4c0,0.1-0.1,0.1-0.1,0.1
		c-0.5,0.4-0.6,1.1-0.2,1.6c0.9,1.2,2.3,1.9,3.8,1.9c0.9,0,1.8-0.2,2.5-0.7l5.6-3.4c0.1-0.1,0.3-0.1,0.4-0.1c0.2,0,0.4,0.1,0.5,0.2
		l16.1,13.3c0,0.1,0.1,0.1,0.1,0.1c0.1,0.1,0.2,0.2,0.3,0.3l0.2,0.1c0.7,0.6,1.7,0.6,2.5,0.1l4.1-2.8L44.4,18.2L43.1,18.6z"/>
	<path d="M30.5,48.1c-0.1,0.4-0.3,0.8-0.6,1.2l-2,2.6l2.7,2.4c0.1,0.1,0.2,0.2,0.3,0.3c1.1,0.8,2.6,0.6,3.4-0.4s0.7-2.5-0.3-3.5
		L30.5,48.1z"/>
	<path d="M24.9,54.3h3.3l-1.3-1.1C26.4,53.8,25.7,54.2,24.9,54.3z"/>
	<path d="M46.9,36.7L30.8,23.4l-5.1,3.1c-2.7,1.7-6.3,1-8.3-1.6c-0.4-0.6-0.6-1.4-0.5-2.1c0.1-0.7,0.6-1.4,1.2-1.8l4.6-2.9l-2.9-0.9
		L9.1,32c0.7,0.7,1.2,1.4,1.5,2.3v-0.1c1.2-1.5,3.5-1.8,5.1-0.6c0.7,0.4,1.1,1.1,1.3,1.9c0.5-0.4,1.1-0.6,1.8-0.7
		c2-0.2,3.8,1.2,4.1,3.2c0,0.4,0,0.9-0.1,1.3c0.9-0.1,1.8,0.1,2.5,0.7c0.8,0.6,1.3,1.4,1.4,2.4c0,0.5,0,0.9-0.1,1.3
		c0.9-0.1,1.8,0.1,2.5,0.7c0.7,0.5,1.1,1.2,1.3,2l4.3,3.2c0.1,0,0.1,0,0.1,0l0.9,0.7c1.1,0.8,2.6,0.6,3.5-0.4c0.8-1,0.7-2.5-0.3-3.4
		l-7-5.3c-0.3-0.3-0.4-0.8-0.1-1.1s0.8-0.4,1.1-0.1l6.9,5.2c0.1,0,0.1,0,0.1,0l0.2,0.2l0.1,0.1l0.6,0.5c1.1,0.8,2.6,0.6,3.5-0.4
		c0.8-1.1,0.7-2.6-0.4-3.5l-0.8-0.6l-7.3-5.6c-0.3-0.3-0.4-0.8-0.1-1.1s0.8-0.4,1.1-0.1l7.3,5.6c1.1,0.7,2.5,0.5,3.3-0.5
		C48.1,38.9,48.1,37.5,46.9,36.7z"/>
</g>
</svg>
