<?xml version="1.0" encoding="utf-8"?>
<!-- Generator: Adobe Illustrator 25.4.1, SVG Export Plug-In . SVG Version: 6.00 Build 0)  -->
<svg version="1.1" id="Layer_1" xmlns="http://www.w3.org/2000/svg" xmlns:xlink="http://www.w3.org/1999/xlink" x="0px" y="0px"
	 viewBox="0 0 65 65" style="enable-background:new 0 0 65 65;" xml:space="preserve">
<g>
	<path d="M59.6,32.9l-8.5-9.7c-0.4-0.5-1-0.8-1.6-0.8c-0.6-0.1-1.1,0.1-1.6,0.5l-3.7,3.3c-0.9,0.8-1,2.1-0.3,3.1l-0.8,0.8
		c-2.5,2.1-7.4,2.4-10.8,9.6l-0.5,1.1c-0.2,0.1-1,0.4-2.2,0.9c-0.7,0.3-1.4,0.5-2,0.7c-0.4,0.1-0.8,0.2-1.3,0.3h-0.5
		c-0.4-1.1-1.4-1.8-2.6-1.8h-4.6c-1.5,0-2.8,1.2-2.8,2.8v12c0,1.5,1.2,2.8,2.8,2.8h4.6c1.2,0,2.2-0.7,2.6-1.8h0.4l2.7,0.7
		c0.4,1.5,1.8,2.4,3.3,2c0.3-0.1,0.5-0.2,0.7-0.3c0.8,1.3,2.5,1.7,3.8,0.9c0.1-0.1,0.3-0.2,0.4-0.3c1.1,1,2.9,0.9,3.9-0.2
		c0.1-0.1,0.2-0.2,0.3-0.4c1.3,0.8,3,0.3,3.8-1c0.1-0.1,0.1-0.3,0.2-0.4h1.1c1.5,0,2.8-1.2,2.8-2.8c0-0.5-0.1-0.9-0.4-1.4
		c1.3-0.8,1.7-2.5,0.8-3.8c-0.1-0.1-0.2-0.2-0.3-0.4c0.8-0.9,0.9-2.2,0.4-3.2c1-0.6,1.4-1.8,1.2-2.9l2.2-3.4
		c0.8,0.4,1.8,0.3,2.6-0.3l3.7-3.3C60.3,35.4,60.4,33.9,59.6,32.9z M32.5,56.5c0,0.5-0.4,0.9-0.9,0.9s-0.9-0.4-0.9-0.9v-3.7
		c0-0.4,0.4-0.9,0.9-0.9s0.9,0.4,0.9,0.9V56.5z M36.2,57.5c0,0.5-0.4,0.9-0.9,0.9s-0.9-0.4-0.9-0.9v-3.7c0-0.5,0.4-0.9,0.9-0.9
		s0.9,0.4,0.9,0.9V57.5z M39.9,57.5c0,0.5-0.4,0.9-0.9,0.9s-0.9-0.4-0.9-0.9v-3.7c0-0.5,0.4-0.9,0.9-0.9s0.9,0.4,0.9,0.9V57.5z
		 M43.6,56.5c0,0.5-0.4,0.9-0.9,0.9s-0.9-0.4-0.9-0.9v-1.8c0-0.5,0.4-0.9,0.9-0.9s0.9,0.4,0.9,0.9V56.5z M46.4,55.6h-0.9v-0.9
		c0-0.3-0.1-0.6-0.2-0.9c0.4,0,0.3,0,1.1,0c0.5,0,0.9,0.4,0.9,0.9S46.9,55.6,46.4,55.6z M48.3,44.5c-1.5,0-3.1,0-4.6,0
		c-0.5,0-0.9,0.4-0.9,0.9s0.4,0.9,0.9,0.9c0.9,0,0.9,0,3.7,0c0.5,0,0.9,0.4,0.9,0.9s-0.4,0.9-0.9,0.9c-1.2,0-2.5,0-3.7,0
		c-0.5,0-0.9,0.4-0.9,0.9s0.4,0.9,0.9,0.9c0.9,0,0.9,0,3.7,0c0.5,0,0.9,0.4,0.9,0.9s-0.4,0.9-0.9,0.9c-1.5,0-3.2,0-4.6,0
		c-0.5,0-0.9,0.1-1.3,0.4c-0.8-1.3-2.6-1.7-3.8-0.8c-0.1,0.1-0.2,0.2-0.3,0.3c-0.9-0.8-2.2-0.9-3.2-0.3c-0.8-1.3-2.5-1.7-3.8-0.8
		c-0.8,0.5-1.3,1.4-1.3,2.3v2.4l-2.6-0.5h-0.4V44.5h0.3c0.6,0,1.2-0.2,1.8-0.4c0.7-0.2,1.4-0.5,2.1-0.7c0.2-0.1,0.3-0.1,0.4-0.2
		l-0.4,0.9c-0.6,1.5,0,3.2,1.5,3.8c1.4,0.6,3.1,0,3.8-1.4c0-0.1,1.3-1.9,2.1-3c0.2-0.3,0.3-0.5,0.5-0.7c0.1-0.1,0.2-0.2,0.7-0.2
		c3.2,0,7,0,9.3,0c0.6,0.1,1,0.5,1,1S48.8,44.5,48.3,44.5z M49.8,41.4c-0.5-0.3-1-0.5-1.6-0.5c-1.8,0-3.6,0-5.3,0
		c0.4-0.5,0.7-1.2,0.7-1.9c0-0.5-0.4-0.9-0.9-0.9s-0.9,0.4-0.9,0.9c-0.1,0.4-0.3,0.8-0.6,1c-0.4,0.4-0.9,0.7-1.4,0.9H39
		c-0.7,0-1.4,0.2-2,0.6c-0.3,0.3-0.6,0.7-0.8,1.1c-0.8,1.1-2.1,3-2.1,3c-0.4,0.7-1,0.9-1.5,0.7s-0.8-0.8-0.6-1.4l2-4.5
		c3.1-6.6,7.4-6.6,10.3-9l0.1-0.1l0.6-0.6l6.8,7.7L49.8,41.4z"/>
	<path d="M22.4,8.4c0.5,0,0.9-0.4,0.9-0.9V5.7c0-0.5-0.4-0.9-0.9-0.9s-0.9,0.4-0.9,0.9v1.8C21.5,8,21.9,8.4,22.4,8.4z"/>
	<path d="M26.6,10.2c0,0,0,0,0.1-0.1L28,8.8c0.4-0.4,0.5-1,0.1-1.3c-0.3-0.4-0.9-0.4-1.3-0.1c0,0,0,0-0.1,0.1l-1.3,1.3
		C25,9.1,25,9.7,25.3,10.1S26.2,10.5,26.6,10.2z"/>
	<path d="M17.8,31.8v-0.1c0-0.3,0-0.6-0.1-0.9h2.8c0.7,0,1.3-0.2,1.8-0.7c0.5,0.5,1.2,0.7,1.9,0.7h12.9c1.5,0,2.8-1.2,2.8-2.8v-2.9
		c0.3,0.1,0.6,0.1,0.9,0.1c2,0.1,3.8-1.5,3.8-3.5c0.1-2-1.5-3.8-3.5-3.8c-0.1,0-0.2,0-0.3,0c-0.3,0-0.6,0-0.9,0.1v-2.9
		c0-1.5-1.2-2.8-2.8-2.8h-4.4c-0.5,0-0.9,0.4-0.9,0.9c0,0.2,0.1,0.4,0.2,0.6c0.7,0.8,0.6,1.9-0.1,2.6c-0.8,0.7-1.9,0.6-2.6-0.1
		c-0.6-0.7-0.6-1.8,0-2.5c0.3-0.4,0.3-1-0.1-1.3c-0.2-0.2-0.4-0.2-0.6-0.2h-4.4c-0.7,0-1.3,0.2-1.9,0.7c-0.5-0.5-1.2-0.7-1.8-0.7
		L7.6,12.2c-1.5,0-2.8,1.2-2.8,2.8v12.9c0,1.5,1.2,2.8,2.8,2.8h2.9c-0.1,0.3-0.1,0.6-0.1,0.9c0,2,1.6,3.7,3.6,3.8
		C16,35.5,17.7,33.8,17.8,31.8z M19.3,20.1c0.7-0.6,1.8-0.6,2.5,0c0.4,0.3,1,0.3,1.3-0.1c0.2-0.2,0.2-0.4,0.2-0.6V15
		c0-0.5,0.4-0.9,0.9-0.9h2.9C27,14.4,27,14.7,27,15c0,2,1.7,3.7,3.7,3.7s3.7-1.7,3.7-3.7c0-0.3,0-0.6-0.1-0.9h2.9
		c0.5,0,0.9,0.4,0.9,0.9v4.4c0,0.5,0.4,0.9,0.9,0.9c0.2,0,0.4-0.1,0.6-0.2c0.3-0.3,0.8-0.5,1.2-0.5c1,0,1.8,0.8,1.8,1.9
		c0,1.1-0.8,1.9-1.8,1.9c-0.5,0-0.9-0.2-1.2-0.5c-0.4-0.3-1-0.3-1.3,0.1c-0.2,0.2-0.2,0.4-0.2,0.6V28c0,0.5-0.4,0.9-0.9,0.9h-13
		c-0.5,0-0.9-0.4-0.9-0.9v-4.5c0-0.5-0.4-0.9-0.9-0.9c-0.2,0-0.4,0.1-0.6,0.2c-0.8,0.7-1.9,0.6-2.6-0.1C18.5,22,18.6,20.8,19.3,20.1
		z"/>
	<path d="M16.7,8.8l1.3,1.3c0.4,0.3,1,0.3,1.3-0.1c0.3-0.4,0.3-0.9,0-1.3L18,7.5c-0.3-0.4-0.9-0.4-1.3-0.1c-0.4,0.3-0.4,0.9-0.1,1.3
		C16.6,8.7,16.7,8.7,16.7,8.8z"/>
</g>
</svg>
